<svg width="799" height="180" version="1.1" xmlns="http://www.w3.org/2000/svg" desc="Created with imagetracer.js version 1.2.6" ><path fill="rgb(0,0,0)" stroke="rgb(0,0,0)" stroke-width="1" opacity="0" d="M 0 0 L 798.5 0 L 799 0.5 L 799 180 L 0.5 180 L 0 179.5 L 0 0 Z M 283 7 L 277 9 Q 271 11 270 18 L 270 55 L 272 59 L 280 64 L 290 63 Q 298 59 297 47 L 287 47 L 287 53 L 284 55 L 280 54 L 279 50 L 279 23 L 282 17 Q 286 16 287 20 L 287 25 L 297 25 Q 298 18 295 14 L 291 9 L 283 7 Z M 316 7 L 308 10 Q 303 13 302 20 L 302 53 L 304 58 L 313 64 Q 320 65 324 62 L 330 54 L 330 19 L 328 14 Q 324 8 316 7 Z M 494 7 L 486 10 Q 481 13 480 19 L 480 54 L 484 61 L 491 64 Q 498 65 502 62 Q 506 59 508 53 L 508 20 L 505 13 Q 501 8 494 7 Z M 337 8 L 337 63 Q 339 66 346 64 L 347 63 L 348 37 L 355 59 L 359 64 Q 365 65 366 63 L 366 9 L 366 8 L 357 8 L 357 36 L 347 10 L 346 8 L 337 8 Z M 375 8 L 373 10 L 373 63 Q 375 66 382 64 L 383 63 L 384 37 L 389 53 Q 388 56 394 54 L 401 36 L 401 64 L 409 64 L 410 63 L 410 9 L 410 8 L 402 8 L 392 34 L 383 10 Q 381 6 375 8 Z M 419 8 L 417 10 L 417 63 L 419 64 L 441 64 L 442 63 L 442 54 L 427 54 L 427 40 L 440 40 L 440 31 L 427 31 L 427 17 L 442 17 L 442 8 L 419 8 Z M 448 8 L 448 64 Q 461 66 470 61 L 474 55 Q 473 49 475 48 L 474 40 L 470 35 L 474 30 L 475 25 L 473 15 L 465 8 L 448 8 Z M 513 8 L 513 63 L 515 64 L 537 64 L 538 63 L 538 54 L 523 54 L 523 9 L 523 8 L 513 8 Z M 237 31 L 237 40 L 254 40 L 254 31 L 237 31 Z M 546 31 L 546 40 L 564 40 L 564 33 L 563 31 L 546 31 Z M 545 92 Q 534 94 528 99 L 517 111 L 512 123 Q 513 127 511 129 L 512 145 L 519 160 Q 528 172 547 175 L 564 174 L 574 170 L 582 164 L 588 156 L 593 143 L 593 125 Q 591 114 585 107 Q 574 90 545 92 Z M 760 92 L 750 94 L 744 97 Q 736 102 733 112 Q 731 124 736 130 L 745 137 L 770 145 Q 774 146 773 154 L 769 157 Q 763 156 762 158 L 761 157 L 750 156 L 740 150 L 738 151 Q 731 155 730 165 L 740 171 L 757 175 L 772 174 L 784 168 Q 789 164 791 156 L 791 143 L 786 133 L 774 126 L 754 120 Q 750 119 751 114 L 756 110 Q 760 111 762 109 L 774 111 L 783 115 L 789 108 L 790 101 L 784 96 L 775 93 L 760 92 Z M 122 93 L 121 94 L 106 95 L 104 97 L 104 173 L 118 174 L 119 175 L 138 175 L 148 173 L 156 169 Q 162 165 164 156 L 163 144 L 159 137 L 151 133 L 153 132 L 160 123 Q 162 108 156 102 Q 150 96 142 94 L 122 93 Z M 253 93 L 252 94 L 238 95 L 236 97 L 236 173 L 254 173 L 255 172 L 255 147 L 256 146 L 264 146 L 281 173 L 297 173 L 300 172 L 284 146 L 283 142 L 286 140 Q 294 134 296 123 Q 297 109 291 103 Q 279 90 253 93 Z M 445 93 L 437 95 L 435 96 L 435 173 L 443 173 L 444 174 L 470 174 L 475 173 L 493 164 Q 502 156 505 141 L 505 125 L 499 110 Q 492 99 479 95 L 470 93 L 445 93 Z M 616 93 L 615 94 L 601 95 L 599 97 L 599 173 L 618 173 L 618 146 L 628 146 L 644 173 L 661 173 L 663 172 L 661 167 L 646 143 Q 645 140 648 141 Q 656 136 659 125 Q 661 110 655 104 Q 650 96 640 94 Q 635 95 634 93 L 616 93 Z M 11 94 L 9 96 L 9 173 L 60 173 L 61 168 Q 63 161 60 160 L 60 156 L 28 156 L 28 95 L 28 94 L 11 94 Z M 72 94 L 72 173 L 73 173 L 90 173 L 91 172 L 91 96 L 90 94 L 72 94 Z M 171 94 L 171 173 L 224 173 L 225 168 Q 227 161 224 160 L 224 156 L 189 156 L 189 141 L 219 141 L 220 138 L 220 129 L 219 128 L 219 125 L 189 125 L 189 111 L 223 111 L 224 105 L 223 96 L 222 94 L 171 94 Z M 302 94 L 300 96 L 300 110 L 302 111 L 323 111 L 323 173 L 330 174 Q 334 175 336 173 Q 341 174 341 173 L 341 111 L 363 111 L 364 110 L 364 96 L 363 94 L 302 94 Z M 383 94 L 375 111 L 353 172 L 356 173 L 371 173 L 391 118 L 399 142 L 389 142 Q 384 147 383 155 L 384 157 L 405 157 L 410 173 L 426 173 L 429 172 L 401 96 L 400 94 L 383 94 Z M 671 94 L 671 173 L 723 173 L 724 172 Q 723 166 725 165 L 724 163 Q 725 156 724 156 L 689 156 L 689 141 L 719 141 L 720 137 Q 722 130 719 129 L 719 125 L 689 125 L 689 111 L 723 111 L 723 96 L 722 94 L 671 94 Z " /><path fill="rgb(0,0,0)" stroke="rgb(0,0,0)" stroke-width="1" opacity="0" d="M 314.5 17 L 320 18 L 320 52.5 L 318.5 54 L 315.5 55 L 312 52.5 L 312 18.5 L 313.5 18 L 314.5 17 Z " /><path fill="rgb(0,0,0)" stroke="rgb(0,0,0)" stroke-width="1" opacity="0" d="M 457 17 Q 463.3 15.5 465 19.5 Q 467 28 462.5 30 L 457 30 L 457 17 Z " /><path fill="rgb(0,0,0)" stroke="rgb(0,0,0)" stroke-width="1" opacity="0" d="M 491.5 17 Q 497 16 498 19.5 L 498 52.5 L 496.5 54 L 493.5 55 L 490 52.5 L 490 18.5 L 491.5 17 Z " /><path fill="rgb(0,0,0)" stroke="rgb(0,0,0)" stroke-width="1" opacity="0" d="M 457 39 L 463.5 39 L 465 40.5 L 465 51.5 L 462.5 54 L 457 54 L 457 39 Z " /><path fill="rgb(0,0,0)" stroke="rgb(0,0,0)" stroke-width="1" opacity="0" d="M 126.5 108 Q 138 107 142 113.5 Q 143.5 121.5 139.5 124 Q 133.2 127.9 122 126 L 122 109.5 L 125.5 109 L 126.5 108 Z " /><path fill="rgb(0,0,0)" stroke="rgb(0,0,0)" stroke-width="1" opacity="0" d="M 255 109 L 268.5 109 L 276 114.5 L 277 121.5 L 273.5 128 L 269.5 130 L 255 130 L 255 109 Z " /><path fill="rgb(0,0,0)" stroke="rgb(0,0,0)" stroke-width="1" opacity="0" d="M 552.5 109 L 563.5 112 L 569 117.5 Q 575 124.5 573 139.5 Q 571.2 149.2 564.5 154 Q 558.7 158.7 546.5 157 Q 538.6 154.9 535 148.5 Q 530.6 141.9 531 130.5 L 533 122.5 L 538.5 114 L 545.5 110 Q 551 111.5 552.5 109 Z " /><path fill="rgb(0,0,0)" stroke="rgb(0,0,0)" stroke-width="1" opacity="0" d="M 618 109 L 632.5 109 L 639 113.5 Q 641.3 116.7 640 123.5 L 635.5 129 L 633.5 130 L 618 130 L 618 109 Z " /><path fill="rgb(0,0,0)" stroke="rgb(0,0,0)" stroke-width="1" opacity="0" d="M 455.5 110 Q 473.8 108.7 481 118.5 L 484 124.5 L 485 136.5 L 483 144.5 L 477.5 152 Q 469.4 158.8 454 157 L 454 111.5 L 455.5 110 Z " /><path fill="rgb(0,0,0)" stroke="rgb(0,0,0)" stroke-width="1" opacity="0" d="M 122 141 L 138.5 141 L 144 145.5 L 145 152.5 L 141.5 158 Q 135 161.5 123.5 160 L 122 158.5 L 122 141 Z " /><path fill="rgb(0,0,0)" stroke="rgb(0,0,0)" stroke-width="1" opacity="0.4235294117647059" d="M 337.5 8 L 338 63 L 346 63 L 346 36.5 L 347.5 36 L 347 37.5 L 347 62.5 L 345.5 64 Q 338.8 65.8 337 62.5 L 337.5 8 Z " /><path fill="rgb(0,0,0)" stroke="rgb(0,0,0)" stroke-width="1" opacity="0.4235294117647059" d="M 513.5 8 L 514 63 L 537 63.5 L 514.5 64 L 513 62.5 L 513.5 8 Z " /><path fill="rgb(0,0,0)" stroke="rgb(0,0,0)" stroke-width="1" opacity="0.4235294117647059" d="M 522.5 8 L 523 54 L 538 54.5 L 523.5 55 L 522 53.5 L 522.5 8 Z " /><path fill="rgb(0,0,0)" stroke="rgb(0,0,0)" stroke-width="1" opacity="0.4235294117647059" d="M 290.5 9 L 291.5 11 L 290.5 9 Z " /><path fill="rgb(0,0,0)" stroke="rgb(0,0,0)" stroke-width="1" opacity="0.4235294117647059" d="M 373.5 9 L 374 63 L 382 63 L 382 36.5 L 383.5 36 L 383 37.5 L 383 62.5 L 381.5 64 Q 374.8 65.8 373 62.5 L 373.5 9 Z " /><path fill="rgb(0,0,0)" stroke="rgb(0,0,0)" stroke-width="1" opacity="0.4235294117647059" d="M 417.5 9 L 418 63 L 441 63.5 L 418.5 64 L 417 62.5 L 417.5 9 Z " /><path fill="rgb(0,0,0)" stroke="rgb(0,0,0)" stroke-width="1" opacity="0.4235294117647059" d="M 307.5 10 L 305.5 13 L 307.5 10 Z " /><path fill="rgb(0,0,0)" stroke="rgb(0,0,0)" stroke-width="1" opacity="0.4235294117647059" d="M 324.5 10 L 327.5 14 L 324.5 10 Z " /><path fill="rgb(0,0,0)" stroke="rgb(0,0,0)" stroke-width="1" opacity="0.4235294117647059" d="M 485.5 10 L 482.5 14 L 485.5 10 Z " /><path fill="rgb(0,0,0)" stroke="rgb(0,0,0)" stroke-width="1" opacity="0.4235294117647059" d="M 502.5 10 L 504.5 13 L 502.5 10 Z " /><path fill="rgb(0,0,0)" stroke="rgb(0,0,0)" stroke-width="1" opacity="0.4235294117647059" d="M 293.5 12 L 294.5 14 L 293.5 12 Z " /><path fill="rgb(0,0,0)" stroke="rgb(0,0,0)" stroke-width="1" opacity="0.4235294117647059" d="M 471.5 13 L 472.5 15 L 471.5 13 Z " /><path fill="rgb(0,0,0)" stroke="rgb(0,0,0)" stroke-width="1" opacity="0.4235294117647059" d="M 427.5 16 L 442 16.5 L 427 17 L 426.5 31 L 426 17.5 L 427.5 16 Z " /><path fill="rgb(0,0,0)" stroke="rgb(0,0,0)" stroke-width="1" opacity="0.4235294117647059" d="M 270.5 17 L 271 19.5 L 270 19.5 L 270.5 17 Z " /><path fill="rgb(0,0,0)" stroke="rgb(0,0,0)" stroke-width="1" opacity="0.4235294117647059" d="M 285.5 17 L 286.5 19 L 285.5 17 Z " /><path fill="rgb(0,0,0)" stroke="rgb(0,0,0)" stroke-width="1" opacity="0.4235294117647059" d="M 463.5 17 L 464.5 19 L 463.5 17 Z " /><path fill="rgb(0,0,0)" stroke="rgb(0,0,0)" stroke-width="1" opacity="0.4235294117647059" d="M 496.5 17 L 497.5 19 L 496.5 17 Z " /><path fill="rgb(0,0,0)" stroke="rgb(0,0,0)" stroke-width="1" opacity="0.4235294117647059" d="M 329.5 18 L 330 53.5 L 329 53.5 L 329.5 18 Z " /><path fill="rgb(0,0,0)" stroke="rgb(0,0,0)" stroke-width="1" opacity="0.4235294117647059" d="M 279.5 19 L 280 21.5 L 279 21.5 L 279.5 19 Z " /><path fill="rgb(0,0,0)" stroke="rgb(0,0,0)" stroke-width="1" opacity="0.4235294117647059" d="M 296.5 19 L 297 24.5 L 296 24.5 L 296.5 19 Z " /><path fill="rgb(0,0,0)" stroke="rgb(0,0,0)" stroke-width="1" opacity="0.4235294117647059" d="M 302.5 19 L 303 52.5 L 302 52.5 L 302.5 19 Z " /><path fill="rgb(0,0,0)" stroke="rgb(0,0,0)" stroke-width="1" opacity="0.4235294117647059" d="M 320.5 19 L 321 51.5 L 320 51.5 L 320.5 19 Z " /><path fill="rgb(0,0,0)" stroke="rgb(0,0,0)" stroke-width="1" opacity="0.4235294117647059" d="M 489.5 19 L 490 51.5 L 489 51.5 L 489.5 19 Z " /><path fill="rgb(0,0,0)" stroke="rgb(0,0,0)" stroke-width="1" opacity="0.4235294117647059" d="M 507.5 19 L 508 52.5 L 507 52.5 L 507.5 19 Z " /><path fill="rgb(0,0,0)" stroke="rgb(0,0,0)" stroke-width="1" opacity="0.4235294117647059" d="M 287.5 20 L 288 24.5 L 287 24.5 L 287.5 20 Z " /><path fill="rgb(0,0,0)" stroke="rgb(0,0,0)" stroke-width="1" opacity="0.4235294117647059" d="M 311.5 20 L 312 51.5 L 311 51.5 L 311.5 20 Z " /><path fill="rgb(0,0,0)" stroke="rgb(0,0,0)" stroke-width="1" opacity="0.4235294117647059" d="M 465.5 20 L 466 26.5 L 465 26.5 L 465.5 20 Z " /><path fill="rgb(0,0,0)" stroke="rgb(0,0,0)" stroke-width="1" opacity="0.4235294117647059" d="M 498.5 20 L 499 50.5 L 498 50.5 L 498.5 20 Z " /><path fill="rgb(0,0,0)" stroke="rgb(0,0,0)" stroke-width="1" opacity="0.4235294117647059" d="M 474.5 22 L 475 24.5 L 474 24.5 L 474.5 22 Z " /><path fill="rgb(0,0,0)" stroke="rgb(0,0,0)" stroke-width="1" opacity="0.4235294117647059" d="M 464.5 28 L 463.5 30 L 464.5 28 Z " /><path fill="rgb(0,0,0)" stroke="rgb(0,0,0)" stroke-width="1" opacity="0.4235294117647059" d="M 546.5 31 L 547 39.5 L 546 39.5 L 546.5 31 Z " /><path fill="rgb(0,0,0)" stroke="rgb(0,0,0)" stroke-width="1" opacity="0.4235294117647059" d="M 563.5 32 L 564 39.5 L 563 39.5 L 563.5 32 Z " /><path fill="rgb(0,0,0)" stroke="rgb(0,0,0)" stroke-width="1" opacity="0.4235294117647059" d="M 392.5 33 L 391.5 35 L 392.5 33 Z " /><path fill="rgb(0,0,0)" stroke="rgb(0,0,0)" stroke-width="1" opacity="0.4235294117647059" d="M 457.5 38 L 462 38.5 L 457.5 39 L 457.5 38 Z " /><path fill="rgb(0,0,0)" stroke="rgb(0,0,0)" stroke-width="1" opacity="0.4235294117647059" d="M 426.5 40 L 427 54 L 442 54.5 L 427.5 55 L 426 53.5 L 426.5 40 Z " /><path fill="rgb(0,0,0)" stroke="rgb(0,0,0)" stroke-width="1" opacity="0.4235294117647059" d="M 465.5 42 L 466 50.5 L 465 50.5 L 465.5 42 Z " /><path fill="rgb(0,0,0)" stroke="rgb(0,0,0)" stroke-width="1" opacity="0.4235294117647059" d="M 474.5 45 L 475 47.5 L 474 47.5 L 474.5 45 Z " /><path fill="rgb(0,0,0)" stroke="rgb(0,0,0)" stroke-width="1" opacity="0.4235294117647059" d="M 287.5 47 L 288 51.5 L 287 51.5 L 287.5 47 Z " /><path fill="rgb(0,0,0)" stroke="rgb(0,0,0)" stroke-width="1" opacity="0.4235294117647059" d="M 296.5 47 L 297 52.5 L 296 52.5 L 296.5 47 Z " /><path fill="rgb(0,0,0)" stroke="rgb(0,0,0)" stroke-width="1" opacity="0.4235294117647059" d="M 480.5 51 L 481 53.5 L 480 53.5 L 480.5 51 Z " /><path fill="rgb(0,0,0)" stroke="rgb(0,0,0)" stroke-width="1" opacity="0.4235294117647059" d="M 270.5 52 L 271 54.5 L 270 54.5 L 270.5 52 Z " /><path fill="rgb(0,0,0)" stroke="rgb(0,0,0)" stroke-width="1" opacity="0.4235294117647059" d="M 464.5 52 L 463.5 54 L 464.5 52 Z " /><path fill="rgb(0,0,0)" stroke="rgb(0,0,0)" stroke-width="1" opacity="0.4235294117647059" d="M 457.5 54 L 461 54.5 L 457.5 55 L 457.5 54 Z " /><path fill="rgb(0,0,0)" stroke="rgb(0,0,0)" stroke-width="1" opacity="0.4235294117647059" d="M 471.5 58 L 469.5 61 L 471.5 58 Z " /><path fill="rgb(0,0,0)" stroke="rgb(0,0,0)" stroke-width="1" opacity="0.4235294117647059" d="M 358.5 63 L 365 63.5 L 358.5 64 L 358.5 63 Z " /><path fill="rgb(0,0,0)" stroke="rgb(0,0,0)" stroke-width="1" opacity="0.4235294117647059" d="M 401.5 63 L 409 63.5 L 401.5 64 L 401.5 63 Z " /><path fill="rgb(0,0,0)" stroke="rgb(0,0,0)" stroke-width="1" opacity="0.4235294117647059" d="M 448.5 63 L 461 63.5 L 448.5 64 L 448.5 63 Z " /><path fill="rgb(0,0,0)" stroke="rgb(0,0,0)" stroke-width="1" opacity="0.4235294117647059" d="M 544.5 92 L 547 92.5 L 544.5 93 L 544.5 92 Z " /><path fill="rgb(0,0,0)" stroke="rgb(0,0,0)" stroke-width="1" opacity="0.4235294117647059" d="M 557.5 92 L 560 92.5 L 557.5 93 L 557.5 92 Z " /><path fill="rgb(0,0,0)" stroke="rgb(0,0,0)" stroke-width="1" opacity="0.4235294117647059" d="M 759.5 92 L 768 92.5 L 759.5 93 L 759.5 92 Z " /><path fill="rgb(0,0,0)" stroke="rgb(0,0,0)" stroke-width="1" opacity="0.4235294117647059" d="M 121.5 93 L 135 93.5 L 121.5 94 L 121.5 93 Z " /><path fill="rgb(0,0,0)" stroke="rgb(0,0,0)" stroke-width="1" opacity="0.4235294117647059" d="M 252.5 93 L 260 93.5 L 252.5 94 L 252.5 93 Z " /><path fill="rgb(0,0,0)" stroke="rgb(0,0,0)" stroke-width="1" opacity="0.4235294117647059" d="M 265.5 93 L 271 93.5 L 265.5 94 L 265.5 93 Z " /><path fill="rgb(0,0,0)" stroke="rgb(0,0,0)" stroke-width="1" opacity="0.4235294117647059" d="M 444.5 93 L 450 93.5 L 444.5 94 L 444.5 93 Z " /><path fill="rgb(0,0,0)" stroke="rgb(0,0,0)" stroke-width="1" opacity="0.4235294117647059" d="M 467.5 93 L 470 93.5 L 467.5 94 L 467.5 93 Z " /><path fill="rgb(0,0,0)" stroke="rgb(0,0,0)" stroke-width="1" opacity="0.4235294117647059" d="M 615.5 93 L 623 93.5 L 615.5 94 L 615.5 93 Z " /><path fill="rgb(0,0,0)" stroke="rgb(0,0,0)" stroke-width="1" opacity="0.4235294117647059" d="M 628.5 93 L 634 93.5 L 628.5 94 L 628.5 93 Z " /><path fill="rgb(0,0,0)" stroke="rgb(0,0,0)" stroke-width="1" opacity="0.4235294117647059" d="M 772.5 93 L 775 93.5 L 772.5 94 L 772.5 93 Z " /><path fill="rgb(0,0,0)" stroke="rgb(0,0,0)" stroke-width="1" opacity="0.4235294117647059" d="M 10.5 94 L 10 95.5 L 10 172 L 59.5 172 L 59.5 173 L 9 173 L 9 95.5 L 10.5 94 Z " /><path fill="rgb(0,0,0)" stroke="rgb(0,0,0)" stroke-width="1" opacity="0.4235294117647059" d="M 26.5 94 L 28 94.5 L 28 155.5 L 27 155.5 L 27 95.5 L 26.5 94 Z " /><path fill="rgb(0,0,0)" stroke="rgb(0,0,0)" stroke-width="1" opacity="0.4235294117647059" d="M 72.5 94 L 75 94.5 L 72.5 95 L 72.5 94 Z " /><path fill="rgb(0,0,0)" stroke="rgb(0,0,0)" stroke-width="1" opacity="0.4235294117647059" d="M 87.5 94 L 91 95.5 L 91 171.5 L 89.5 173 L 90 171.5 L 90 95.5 L 87.5 95 L 87.5 94 Z " /><path fill="rgb(0,0,0)" stroke="rgb(0,0,0)" stroke-width="1" opacity="0.4235294117647059" d="M 111.5 94 L 115 94.5 L 111.5 95 L 111.5 94 Z " /><path fill="rgb(0,0,0)" stroke="rgb(0,0,0)" stroke-width="1" opacity="0.4235294117647059" d="M 171.5 94 L 221.5 94 L 223 95.5 L 221.5 95 L 171.5 95 L 171.5 94 Z " /><path fill="rgb(0,0,0)" stroke="rgb(0,0,0)" stroke-width="1" opacity="0.4235294117647059" d="M 242.5 94 L 246 94.5 L 242.5 95 L 242.5 94 Z " /><path fill="rgb(0,0,0)" stroke="rgb(0,0,0)" stroke-width="1" opacity="0.4235294117647059" d="M 301.5 94 L 362.5 94 L 364 95.5 L 363.5 97 L 363 95 L 301.5 95 L 301 97.5 L 300 97.5 L 301.5 94 Z " /><path fill="rgb(0,0,0)" stroke="rgb(0,0,0)" stroke-width="1" opacity="0.4235294117647059" d="M 382.5 94 L 381.5 96 L 382.5 94 Z " /><path fill="rgb(0,0,0)" stroke="rgb(0,0,0)" stroke-width="1" opacity="0.4235294117647059" d="M 398.5 94 L 401 95.5 L 399.5 95 L 398.5 94 Z " /><path fill="rgb(0,0,0)" stroke="rgb(0,0,0)" stroke-width="1" opacity="0.4235294117647059" d="M 606.5 94 L 609 94.5 L 606.5 95 L 606.5 94 Z " /><path fill="rgb(0,0,0)" stroke="rgb(0,0,0)" stroke-width="1" opacity="0.4235294117647059" d="M 671.5 94 L 721.5 94 L 723 95.5 L 722.5 97 L 722 95 L 671.5 95 L 671.5 94 Z " /><path fill="rgb(0,0,0)" stroke="rgb(0,0,0)" stroke-width="1" opacity="0.4235294117647059" d="M 600.5 95 L 602 95.5 L 600 96 L 600 171.5 L 601 172.5 L 599 173 L 599 96.5 L 600.5 95 Z " /><path fill="rgb(0,0,0)" stroke="rgb(0,0,0)" stroke-width="1" opacity="0.4235294117647059" d="M 527.5 99 L 526.5 101 L 527.5 99 Z " /><path fill="rgb(0,0,0)" stroke="rgb(0,0,0)" stroke-width="1" opacity="0.4235294117647059" d="M 650.5 99 L 651.5 101 L 650.5 99 Z " /><path fill="rgb(0,0,0)" stroke="rgb(0,0,0)" stroke-width="1" opacity="0.4235294117647059" d="M 154.5 100 L 155.5 102 L 154.5 100 Z " /><path fill="rgb(0,0,0)" stroke="rgb(0,0,0)" stroke-width="1" opacity="0.4235294117647059" d="M 223.5 100 L 224 104.5 L 223 104.5 L 223.5 100 Z " /><path fill="rgb(0,0,0)" stroke="rgb(0,0,0)" stroke-width="1" opacity="0.4235294117647059" d="M 288.5 100 L 290.5 103 L 288.5 100 Z " /><path fill="rgb(0,0,0)" stroke="rgb(0,0,0)" stroke-width="1" opacity="0.4235294117647059" d="M 578.5 100 L 580.5 103 L 578.5 100 Z " /><path fill="rgb(0,0,0)" stroke="rgb(0,0,0)" stroke-width="1" opacity="0.4235294117647059" d="M 490.5 101 L 491.5 103 L 490.5 101 Z " /><path fill="rgb(0,0,0)" stroke="rgb(0,0,0)" stroke-width="1" opacity="0.4235294117647059" d="M 582.5 104 L 584.5 107 L 582.5 104 Z " /><path fill="rgb(0,0,0)" stroke="rgb(0,0,0)" stroke-width="1" opacity="0.4235294117647059" d="M 122.5 108 L 126 108.5 L 122.5 109 L 122.5 108 Z " /><path fill="rgb(0,0,0)" stroke="rgb(0,0,0)" stroke-width="1" opacity="0.4235294117647059" d="M 133.5 108 L 136 108.5 L 133.5 109 L 133.5 108 Z " /><path fill="rgb(0,0,0)" stroke="rgb(0,0,0)" stroke-width="1" opacity="0.4235294117647059" d="M 261.5 108 L 265 108.5 L 261.5 109 L 261.5 108 Z " /><path fill="rgb(0,0,0)" stroke="rgb(0,0,0)" stroke-width="1" opacity="0.4235294117647059" d="M 497.5 108 L 498.5 110 L 497.5 108 Z " /><path fill="rgb(0,0,0)" stroke="rgb(0,0,0)" stroke-width="1" opacity="0.4235294117647059" d="M 624.5 108 L 628 108.5 L 624.5 109 L 624.5 108 Z " /><path fill="rgb(0,0,0)" stroke="rgb(0,0,0)" stroke-width="1" opacity="0.4235294117647059" d="M 254.5 109 L 255 130 L 268 130.5 L 254 131 L 254.5 109 Z " /><path fill="rgb(0,0,0)" stroke="rgb(0,0,0)" stroke-width="1" opacity="0.4235294117647059" d="M 548.5 109 L 552 109.5 L 548.5 110 L 548.5 109 Z " /><path fill="rgb(0,0,0)" stroke="rgb(0,0,0)" stroke-width="1" opacity="0.4235294117647059" d="M 553.5 109 L 557 109.5 L 553.5 110 L 553.5 109 Z " /><path fill="rgb(0,0,0)" stroke="rgb(0,0,0)" stroke-width="1" opacity="0.4235294117647059" d="M 757.5 109 L 761 109.5 L 757.5 110 L 757.5 109 Z " /><path fill="rgb(0,0,0)" stroke="rgb(0,0,0)" stroke-width="1" opacity="0.4235294117647059" d="M 763.5 109 L 767 109.5 L 763.5 110 L 763.5 109 Z " /><path fill="rgb(0,0,0)" stroke="rgb(0,0,0)" stroke-width="1" opacity="0.4235294117647059" d="M 139.5 110 L 141.5 113 L 139.5 110 Z " /><path fill="rgb(0,0,0)" stroke="rgb(0,0,0)" stroke-width="1" opacity="0.4235294117647059" d="M 272.5 110 L 275.5 114 L 272.5 110 Z " /><path fill="rgb(0,0,0)" stroke="rgb(0,0,0)" stroke-width="1" opacity="0.4235294117647059" d="M 453 110 L 455 110.5 L 454 111.5 L 453.5 157 L 453 110 Z " /><path fill="rgb(0,0,0)" stroke="rgb(0,0,0)" stroke-width="1" opacity="0.4235294117647059" d="M 465.5 110 L 468 110.5 L 465.5 111 L 465.5 110 Z " /><path fill="rgb(0,0,0)" stroke="rgb(0,0,0)" stroke-width="1" opacity="0.4235294117647059" d="M 658.5 111 L 659 113.5 L 658 113.5 L 658.5 111 Z " /><path fill="rgb(0,0,0)" stroke="rgb(0,0,0)" stroke-width="1" opacity="0.4235294117647059" d="M 733.5 111 L 734 113.5 L 733 113.5 L 733.5 111 Z " /><path fill="rgb(0,0,0)" stroke="rgb(0,0,0)" stroke-width="1" opacity="0.4235294117647059" d="M 540.5 112 L 539.5 114 L 540.5 112 Z " /><path fill="rgb(0,0,0)" stroke="rgb(0,0,0)" stroke-width="1" opacity="0.4235294117647059" d="M 295.5 113 L 296 122.5 L 295 122.5 L 295.5 113 Z " /><path fill="rgb(0,0,0)" stroke="rgb(0,0,0)" stroke-width="1" opacity="0.4235294117647059" d="M 475.5 113 L 476.5 115 L 475.5 113 Z " /><path fill="rgb(0,0,0)" stroke="rgb(0,0,0)" stroke-width="1" opacity="0.4235294117647059" d="M 565.5 113 L 567.5 116 L 565.5 113 Z " /><path fill="rgb(0,0,0)" stroke="rgb(0,0,0)" stroke-width="1" opacity="0.4235294117647059" d="M 142.5 115 L 143 118.5 L 142 118.5 L 142.5 115 Z " /><path fill="rgb(0,0,0)" stroke="rgb(0,0,0)" stroke-width="1" opacity="0.4235294117647059" d="M 536.5 116 L 535.5 118 L 536.5 116 Z " /><path fill="rgb(0,0,0)" stroke="rgb(0,0,0)" stroke-width="1" opacity="0.4235294117647059" d="M 640.5 117 L 641 121.5 L 640 121.5 L 640.5 117 Z " /><path fill="rgb(0,0,0)" stroke="rgb(0,0,0)" stroke-width="1" opacity="0.4235294117647059" d="M 751.5 118 L 752.5 120 L 751.5 118 Z " /><path fill="rgb(0,0,0)" stroke="rgb(0,0,0)" stroke-width="1" opacity="0.4235294117647059" d="M 733.5 120 L 734 122.5 L 733 122.5 L 733.5 120 Z " /><path fill="rgb(0,0,0)" stroke="rgb(0,0,0)" stroke-width="1" opacity="0.4235294117647059" d="M 504.5 124 L 505 126.5 L 504 126.5 L 504.5 124 Z " /><path fill="rgb(0,0,0)" stroke="rgb(0,0,0)" stroke-width="1" opacity="0.4235294117647059" d="M 592.5 124 L 593 126.5 L 592 126.5 L 592.5 124 Z " /><path fill="rgb(0,0,0)" stroke="rgb(0,0,0)" stroke-width="1" opacity="0.4235294117647059" d="M 484.5 126 L 485 128.5 L 484 128.5 L 484.5 126 Z " /><path fill="rgb(0,0,0)" stroke="rgb(0,0,0)" stroke-width="1" opacity="0.4235294117647059" d="M 531.5 127 L 532 129.5 L 531 129.5 L 531.5 127 Z " /><path fill="rgb(0,0,0)" stroke="rgb(0,0,0)" stroke-width="1" opacity="0.4235294117647059" d="M 219.5 128 L 220 137.5 L 219 137.5 L 219.5 128 Z " /><path fill="rgb(0,0,0)" stroke="rgb(0,0,0)" stroke-width="1" opacity="0.4235294117647059" d="M 511.5 128 L 512 138.5 L 511 138.5 L 511.5 128 Z " /><path fill="rgb(0,0,0)" stroke="rgb(0,0,0)" stroke-width="1" opacity="0.4235294117647059" d="M 719.5 129 L 720 136.5 L 719 136.5 L 719.5 129 Z " /><path fill="rgb(0,0,0)" stroke="rgb(0,0,0)" stroke-width="1" opacity="0.4235294117647059" d="M 736.5 129 L 737.5 131 L 736.5 129 Z " /><path fill="rgb(0,0,0)" stroke="rgb(0,0,0)" stroke-width="1" opacity="0.4235294117647059" d="M 573.5 130 L 574 135.5 L 573 135.5 L 573.5 130 Z " /><path fill="rgb(0,0,0)" stroke="rgb(0,0,0)" stroke-width="1" opacity="0.4235294117647059" d="M 618.5 130 L 631 130.5 L 618.5 131 L 618.5 130 Z " /><path fill="rgb(0,0,0)" stroke="rgb(0,0,0)" stroke-width="1" opacity="0.4235294117647059" d="M 655.5 132 L 654.5 134 L 655.5 132 Z " /><path fill="rgb(0,0,0)" stroke="rgb(0,0,0)" stroke-width="1" opacity="0.4235294117647059" d="M 740.5 133 L 741.5 135 L 740.5 133 Z " /><path fill="rgb(0,0,0)" stroke="rgb(0,0,0)" stroke-width="1" opacity="0.4235294117647059" d="M 484.5 137 L 485 139.5 L 484 139.5 L 484.5 137 Z " /><path fill="rgb(0,0,0)" stroke="rgb(0,0,0)" stroke-width="1" opacity="0.4235294117647059" d="M 531.5 137 L 532 139.5 L 531 139.5 L 531.5 137 Z " /><path fill="rgb(0,0,0)" stroke="rgb(0,0,0)" stroke-width="1" opacity="0.4235294117647059" d="M 286.5 138 L 285.5 140 L 286.5 138 Z " /><path fill="rgb(0,0,0)" stroke="rgb(0,0,0)" stroke-width="1" opacity="0.4235294117647059" d="M 504.5 138 L 505 140.5 L 504 140.5 L 504.5 138 Z " /><path fill="rgb(0,0,0)" stroke="rgb(0,0,0)" stroke-width="1" opacity="0.4235294117647059" d="M 648.5 139 L 647.5 141 L 648.5 139 Z " /><path fill="rgb(0,0,0)" stroke="rgb(0,0,0)" stroke-width="1" opacity="0.4235294117647059" d="M 122.5 140 L 137 140.5 L 122.5 141 L 122.5 140 Z " /><path fill="rgb(0,0,0)" stroke="rgb(0,0,0)" stroke-width="1" opacity="0.4235294117647059" d="M 592.5 140 L 593 142.5 L 592 142.5 L 592.5 140 Z " /><path fill="rgb(0,0,0)" stroke="rgb(0,0,0)" stroke-width="1" opacity="0.4235294117647059" d="M 141.5 142 L 143.5 145 L 141.5 142 Z " /><path fill="rgb(0,0,0)" stroke="rgb(0,0,0)" stroke-width="1" opacity="0.4235294117647059" d="M 255.5 145 L 259 145.5 L 255 146 L 254.5 172 L 254 146.5 L 255.5 145 Z " /><path fill="rgb(0,0,0)" stroke="rgb(0,0,0)" stroke-width="1" opacity="0.4235294117647059" d="M 618.5 145 L 622 145.5 L 618.5 146 L 618.5 145 Z " /><path fill="rgb(0,0,0)" stroke="rgb(0,0,0)" stroke-width="1" opacity="0.4235294117647059" d="M 770.5 145 L 772.5 148 L 770.5 145 Z " /><path fill="rgb(0,0,0)" stroke="rgb(0,0,0)" stroke-width="1" opacity="0.4235294117647059" d="M 163.5 147 L 164 155.5 L 163 155.5 L 163.5 147 Z " /><path fill="rgb(0,0,0)" stroke="rgb(0,0,0)" stroke-width="1" opacity="0.4235294117647059" d="M 773.5 149 L 774 151.5 L 773 151.5 L 773.5 149 Z " /><path fill="rgb(0,0,0)" stroke="rgb(0,0,0)" stroke-width="1" opacity="0.4235294117647059" d="M 536.5 150 L 539.5 154 L 536.5 150 Z " /><path fill="rgb(0,0,0)" stroke="rgb(0,0,0)" stroke-width="1" opacity="0.4235294117647059" d="M 739.5 150 L 740.5 152 L 739.5 150 Z " /><path fill="rgb(0,0,0)" stroke="rgb(0,0,0)" stroke-width="1" opacity="0.4235294117647059" d="M 737.5 151 L 734.5 155 L 737.5 151 Z " /><path fill="rgb(0,0,0)" stroke="rgb(0,0,0)" stroke-width="1" opacity="0.4235294117647059" d="M 476.5 152 L 475.5 154 L 476.5 152 Z " /><path fill="rgb(0,0,0)" stroke="rgb(0,0,0)" stroke-width="1" opacity="0.4235294117647059" d="M 383.5 154 L 384 156.5 L 383 156.5 L 383.5 154 Z " /><path fill="rgb(0,0,0)" stroke="rgb(0,0,0)" stroke-width="1" opacity="0.4235294117647059" d="M 189.5 156 L 224 156.5 L 189.5 157 L 189.5 156 Z " /><path fill="rgb(0,0,0)" stroke="rgb(0,0,0)" stroke-width="1" opacity="0.4235294117647059" d="M 498.5 156 L 497.5 158 L 498.5 156 Z " /><path fill="rgb(0,0,0)" stroke="rgb(0,0,0)" stroke-width="1" opacity="0.4235294117647059" d="M 689.5 156 L 723.5 156 L 724 157.5 L 722.5 157 L 689.5 157 L 689.5 156 Z " /><path fill="rgb(0,0,0)" stroke="rgb(0,0,0)" stroke-width="1" opacity="0.4235294117647059" d="M 549.5 157 L 555 157.5 L 549.5 158 L 549.5 157 Z " /><path fill="rgb(0,0,0)" stroke="rgb(0,0,0)" stroke-width="1" opacity="0.4235294117647059" d="M 756.5 157 L 761 157.5 L 756.5 158 L 756.5 157 Z " /><path fill="rgb(0,0,0)" stroke="rgb(0,0,0)" stroke-width="1" opacity="0.4235294117647059" d="M 762.5 157 L 767 157.5 L 762.5 158 L 762.5 157 Z " /><path fill="rgb(0,0,0)" stroke="rgb(0,0,0)" stroke-width="1" opacity="0.4235294117647059" d="M 519.5 159 L 520.5 161 L 519.5 159 Z " /><path fill="rgb(0,0,0)" stroke="rgb(0,0,0)" stroke-width="1" opacity="0.4235294117647059" d="M 60.5 160 L 61 167.5 L 60 167.5 L 60.5 160 Z " /><path fill="rgb(0,0,0)" stroke="rgb(0,0,0)" stroke-width="1" opacity="0.4235294117647059" d="M 224.5 160 L 225 167.5 L 224 167.5 L 224.5 160 Z " /><path fill="rgb(0,0,0)" stroke="rgb(0,0,0)" stroke-width="1" opacity="0.4235294117647059" d="M 495.5 160 L 492.5 164 L 495.5 160 Z " /><path fill="rgb(0,0,0)" stroke="rgb(0,0,0)" stroke-width="1" opacity="0.4235294117647059" d="M 159.5 164 L 155.5 169 L 159.5 164 Z " /><path fill="rgb(0,0,0)" stroke="rgb(0,0,0)" stroke-width="1" opacity="0.4235294117647059" d="M 295.5 164 L 296.5 166 L 295.5 164 Z " /><path fill="rgb(0,0,0)" stroke="rgb(0,0,0)" stroke-width="1" opacity="0.4235294117647059" d="M 730.5 164 L 732.5 167 L 730.5 164 Z " /><path fill="rgb(0,0,0)" stroke="rgb(0,0,0)" stroke-width="1" opacity="0.4235294117647059" d="M 786.5 164 L 783.5 168 L 786.5 164 Z " /><path fill="rgb(0,0,0)" stroke="rgb(0,0,0)" stroke-width="1" opacity="0.4235294117647059" d="M 489.5 165 L 488.5 167 L 489.5 165 Z " /><path fill="rgb(0,0,0)" stroke="rgb(0,0,0)" stroke-width="1" opacity="0.4235294117647059" d="M 659.5 165 L 660.5 167 L 659.5 165 Z " /><path fill="rgb(0,0,0)" stroke="rgb(0,0,0)" stroke-width="1" opacity="0.4235294117647059" d="M 577.5 166 L 576.5 168 L 577.5 166 Z " /><path fill="rgb(0,0,0)" stroke="rgb(0,0,0)" stroke-width="1" opacity="0.4235294117647059" d="M 723.5 171 L 722.5 173 L 671 172.5 L 722.5 172 L 723.5 171 Z " /><path fill="rgb(0,0,0)" stroke="rgb(0,0,0)" stroke-width="1" opacity="0.4235294117647059" d="M 171.5 172 L 224 172.5 L 171.5 173 L 171.5 172 Z " /><path fill="rgb(0,0,0)" stroke="rgb(0,0,0)" stroke-width="1" opacity="0.4235294117647059" d="M 294.5 172 L 297 172.5 L 294.5 173 L 294.5 172 Z " /><path fill="rgb(0,0,0)" stroke="rgb(0,0,0)" stroke-width="1" opacity="0.4235294117647059" d="M 423.5 172 L 426 172.5 L 423.5 173 L 423.5 172 Z " /><path fill="rgb(0,0,0)" stroke="rgb(0,0,0)" stroke-width="1" opacity="0.4235294117647059" d="M 657.5 172 L 661 172.5 L 657.5 173 L 657.5 172 Z " /><path fill="rgb(0,0,0)" stroke="rgb(0,0,0)" stroke-width="1" opacity="0.4235294117647059" d="M 109.5 173 L 112 173.5 L 109.5 174 L 109.5 173 Z " /><path fill="rgb(0,0,0)" stroke="rgb(0,0,0)" stroke-width="1" opacity="0.4235294117647059" d="M 329.5 173 L 335 173.5 L 329.5 174 L 329.5 173 Z " /><path fill="rgb(0,0,0)" stroke="rgb(0,0,0)" stroke-width="1" opacity="0.4235294117647059" d="M 443.5 173 L 449 173.5 L 443.5 174 L 443.5 173 Z " /><path fill="rgb(0,0,0)" stroke="rgb(0,0,0)" stroke-width="1" opacity="0.4235294117647059" d="M 467.5 173 L 470 173.5 L 467.5 174 L 467.5 173 Z " /><path fill="rgb(0,0,0)" stroke="rgb(0,0,0)" stroke-width="1" opacity="0.4235294117647059" d="M 118.5 174 L 128 174.5 L 118.5 175 L 118.5 174 Z " /><path fill="rgb(0,0,0)" stroke="rgb(0,0,0)" stroke-width="1" opacity="0.4235294117647059" d="M 132.5 174 L 138 174.5 L 132.5 175 L 132.5 174 Z " /><path fill="rgb(0,0,0)" stroke="rgb(0,0,0)" stroke-width="1" opacity="0.4235294117647059" d="M 546.5 174 L 551 174.5 L 546.5 175 L 546.5 174 Z " /><path fill="rgb(0,0,0)" stroke="rgb(0,0,0)" stroke-width="1" opacity="0.4235294117647059" d="M 553.5 174 L 559 174.5 L 553.5 175 L 553.5 174 Z " /><path fill="rgb(0,0,0)" stroke="rgb(0,0,0)" stroke-width="1" opacity="0.4235294117647059" d="M 756.5 174 L 766 174.5 L 756.5 175 L 756.5 174 Z " /><path fill="rgb(0,0,0)" stroke="rgb(0,0,0)" stroke-width="1" opacity="0.8392156862745098" d="M 338.5 8 L 346 8.5 L 338.5 9 L 338.5 8 Z " /><path fill="rgb(0,0,0)" stroke="rgb(0,0,0)" stroke-width="1" opacity="0.8392156862745098" d="M 357.5 8 Q 364.3 6.2 366 9.5 L 365.5 63 L 365 9 L 357.5 9 L 357.5 8 Z " /><path fill="rgb(0,0,0)" stroke="rgb(0,0,0)" stroke-width="1" opacity="0.8392156862745098" d="M 374.5 8 L 382 8.5 L 374.5 9 L 374.5 8 Z " /><path fill="rgb(0,0,0)" stroke="rgb(0,0,0)" stroke-width="1" opacity="0.8392156862745098" d="M 401.5 8 Q 408.2 6.2 410 9.5 L 409.5 63 L 409 9 L 401.5 9 L 401.5 8 Z " /><path fill="rgb(0,0,0)" stroke="rgb(0,0,0)" stroke-width="1" opacity="0.8392156862745098" d="M 418.5 8 L 440.5 8 L 442 9.5 L 441.5 16 L 441 9 L 418.5 9 L 418.5 8 Z " /><path fill="rgb(0,0,0)" stroke="rgb(0,0,0)" stroke-width="1" opacity="0.8392156862745098" d="M 448.5 8 L 463 8.5 L 448.5 9 L 448.5 8 Z " /><path fill="rgb(0,0,0)" stroke="rgb(0,0,0)" stroke-width="1" opacity="0.8392156862745098" d="M 514.5 8 L 522 8.5 L 514.5 9 L 514.5 8 Z " /><path fill="rgb(0,0,0)" stroke="rgb(0,0,0)" stroke-width="1" opacity="0.8392156862745098" d="M 275.5 10 L 272.5 14 L 275.5 10 Z " /><path fill="rgb(0,0,0)" stroke="rgb(0,0,0)" stroke-width="1" opacity="0.8392156862745098" d="M 469.5 11 L 470.5 13 L 469.5 11 Z " /><path fill="rgb(0,0,0)" stroke="rgb(0,0,0)" stroke-width="1" opacity="0.8392156862745098" d="M 281.5 16 L 285 16.5 L 281.5 17 L 281.5 16 Z " /><path fill="rgb(0,0,0)" stroke="rgb(0,0,0)" stroke-width="1" opacity="0.8392156862745098" d="M 314.5 16 L 318 16.5 L 314.5 17 L 314.5 16 Z " /><path fill="rgb(0,0,0)" stroke="rgb(0,0,0)" stroke-width="1" opacity="0.8392156862745098" d="M 492.5 16 L 496 16.5 L 492.5 17 L 492.5 16 Z " /><path fill="rgb(0,0,0)" stroke="rgb(0,0,0)" stroke-width="1" opacity="0.8392156862745098" d="M 490.5 17 L 489.5 19 L 490.5 17 Z " /><path fill="rgb(0,0,0)" stroke="rgb(0,0,0)" stroke-width="1" opacity="0.8392156862745098" d="M 270.5 20 L 271 51.5 L 270 51.5 L 270.5 20 Z " /><path fill="rgb(0,0,0)" stroke="rgb(0,0,0)" stroke-width="1" opacity="0.8392156862745098" d="M 480.5 20 L 481 50.5 L 480 50.5 L 480.5 20 Z " /><path fill="rgb(0,0,0)" stroke="rgb(0,0,0)" stroke-width="1" opacity="0.8392156862745098" d="M 288.5 24 L 296 24.5 L 288.5 25 L 288.5 24 Z " /><path fill="rgb(0,0,0)" stroke="rgb(0,0,0)" stroke-width="1" opacity="0.8392156862745098" d="M 457.5 30 L 462 30.5 L 457.5 31 L 457.5 30 Z " /><path fill="rgb(0,0,0)" stroke="rgb(0,0,0)" stroke-width="1" opacity="0.8392156862745098" d="M 238.5 31 L 253 31.5 L 238 32 L 237.5 40 L 237 32.5 L 238.5 31 Z " /><path fill="rgb(0,0,0)" stroke="rgb(0,0,0)" stroke-width="1" opacity="0.8392156862745098" d="M 427.5 31 L 439 31.5 L 427.5 32 L 427.5 31 Z " /><path fill="rgb(0,0,0)" stroke="rgb(0,0,0)" stroke-width="1" opacity="0.8392156862745098" d="M 547.5 31 L 563 31.5 L 547.5 32 L 547.5 31 Z " /><path fill="rgb(0,0,0)" stroke="rgb(0,0,0)" stroke-width="1" opacity="0.8392156862745098" d="M 469.5 34 L 471.5 37 L 469.5 34 Z " /><path fill="rgb(0,0,0)" stroke="rgb(0,0,0)" stroke-width="1" opacity="0.8392156862745098" d="M 400.5 35 L 399.5 37 L 400.5 35 Z " /><path fill="rgb(0,0,0)" stroke="rgb(0,0,0)" stroke-width="1" opacity="0.8392156862745098" d="M 427.5 39 L 439 39.5 L 427.5 40 L 427.5 39 Z " /><path fill="rgb(0,0,0)" stroke="rgb(0,0,0)" stroke-width="1" opacity="0.8392156862745098" d="M 390.5 53 L 394 53.5 L 390.5 54 L 390.5 53 Z " /><path fill="rgb(0,0,0)" stroke="rgb(0,0,0)" stroke-width="1" opacity="0.8392156862745098" d="M 441.5 55 L 442 62.5 L 441 62.5 L 441.5 55 Z " /><path fill="rgb(0,0,0)" stroke="rgb(0,0,0)" stroke-width="1" opacity="0.8392156862745098" d="M 537.5 55 L 538 62.5 L 537 62.5 L 537.5 55 Z " /><path fill="rgb(0,0,0)" stroke="rgb(0,0,0)" stroke-width="1" opacity="0.8392156862745098" d="M 482.5 57 L 483.5 59 L 482.5 57 Z " /><path fill="rgb(0,0,0)" stroke="rgb(0,0,0)" stroke-width="1" opacity="0.8392156862745098" d="M 293.5 58 L 290.5 62 L 293.5 58 Z " /><path fill="rgb(0,0,0)" stroke="rgb(0,0,0)" stroke-width="1" opacity="0.8392156862745098" d="M 305.5 58 L 307.5 61 L 305.5 58 Z " /><path fill="rgb(0,0,0)" stroke="rgb(0,0,0)" stroke-width="1" opacity="0.8392156862745098" d="M 326.5 58 L 323.5 62 L 326.5 58 Z " /><path fill="rgb(0,0,0)" stroke="rgb(0,0,0)" stroke-width="1" opacity="0.8392156862745098" d="M 504.5 58 L 502.5 61 L 504.5 58 Z " /><path fill="rgb(0,0,0)" stroke="rgb(0,0,0)" stroke-width="1" opacity="0.8392156862745098" d="M 273.5 59 L 274.5 61 L 273.5 59 Z " /><path fill="rgb(0,0,0)" stroke="rgb(0,0,0)" stroke-width="1" opacity="0.8392156862745098" d="M 485.5 60 L 486.5 62 L 485.5 60 Z " /><path fill="rgb(0,0,0)" stroke="rgb(0,0,0)" stroke-width="1" opacity="0.8392156862745098" d="M 281.5 63 L 285 63.5 L 281.5 64 L 281.5 63 Z " /><path fill="rgb(0,0,0)" stroke="rgb(0,0,0)" stroke-width="1" opacity="0.8392156862745098" d="M 314.5 63 L 318 63.5 L 314.5 64 L 314.5 63 Z " /><path fill="rgb(0,0,0)" stroke="rgb(0,0,0)" stroke-width="1" opacity="0.8392156862745098" d="M 492.5 63 L 496 63.5 L 492.5 64 L 492.5 63 Z " /><path fill="rgb(0,0,0)" stroke="rgb(0,0,0)" stroke-width="1" opacity="0.8392156862745098" d="M 547.5 92 L 557 92.5 L 547.5 93 L 547.5 92 Z " /><path fill="rgb(0,0,0)" stroke="rgb(0,0,0)" stroke-width="1" opacity="0.8392156862745098" d="M 260.5 93 L 265 93.5 L 260.5 94 L 260.5 93 Z " /><path fill="rgb(0,0,0)" stroke="rgb(0,0,0)" stroke-width="1" opacity="0.8392156862745098" d="M 450.5 93 L 459 93.5 L 450.5 94 L 450.5 93 Z " /><path fill="rgb(0,0,0)" stroke="rgb(0,0,0)" stroke-width="1" opacity="0.8392156862745098" d="M 461.5 93 L 467 93.5 L 461.5 94 L 461.5 93 Z " /><path fill="rgb(0,0,0)" stroke="rgb(0,0,0)" stroke-width="1" opacity="0.8392156862745098" d="M 623.5 93 L 628 93.5 L 623.5 94 L 623.5 93 Z " /><path fill="rgb(0,0,0)" stroke="rgb(0,0,0)" stroke-width="1" opacity="0.8392156862745098" d="M 11.5 94 L 14 94.5 L 11.5 95 L 11.5 94 Z " /><path fill="rgb(0,0,0)" stroke="rgb(0,0,0)" stroke-width="1" opacity="0.8392156862745098" d="M 23.5 94 L 26 94.5 L 23.5 95 L 23.5 94 Z " /><path fill="rgb(0,0,0)" stroke="rgb(0,0,0)" stroke-width="1" opacity="0.8392156862745098" d="M 75.5 94 L 79 94.5 L 75.5 95 L 75.5 94 Z " /><path fill="rgb(0,0,0)" stroke="rgb(0,0,0)" stroke-width="1" opacity="0.8392156862745098" d="M 83.5 94 L 87 94.5 L 83.5 95 L 83.5 94 Z " /><path fill="rgb(0,0,0)" stroke="rgb(0,0,0)" stroke-width="1" opacity="0.8392156862745098" d="M 115.5 94 L 118 94.5 L 115.5 95 L 115.5 94 Z " /><path fill="rgb(0,0,0)" stroke="rgb(0,0,0)" stroke-width="1" opacity="0.8392156862745098" d="M 383.5 94 L 386 94.5 L 383.5 95 L 383.5 94 Z " /><path fill="rgb(0,0,0)" stroke="rgb(0,0,0)" stroke-width="1" opacity="0.8392156862745098" d="M 439.5 94 L 442 94.5 L 439.5 95 L 439.5 94 Z " /><path fill="rgb(0,0,0)" stroke="rgb(0,0,0)" stroke-width="1" opacity="0.8392156862745098" d="M 72.5 95 L 73 172 L 76 172.5 L 73.5 173 L 72 171.5 L 72.5 95 Z " /><path fill="rgb(0,0,0)" stroke="rgb(0,0,0)" stroke-width="1" opacity="0.8392156862745098" d="M 435.5 95 L 436 171.5 L 435 171.5 L 435.5 95 Z " /><path fill="rgb(0,0,0)" stroke="rgb(0,0,0)" stroke-width="1" opacity="0.8392156862745098" d="M 236.5 96 L 237 172 L 240 172.5 L 237.5 173 L 236 171.5 L 236.5 96 Z " /><path fill="rgb(0,0,0)" stroke="rgb(0,0,0)" stroke-width="1" opacity="0.8392156862745098" d="M 300.5 98 L 301 100.5 L 300 100.5 L 300.5 98 Z " /><path fill="rgb(0,0,0)" stroke="rgb(0,0,0)" stroke-width="1" opacity="0.8392156862745098" d="M 742.5 98 L 740.5 101 L 742.5 98 Z " /><path fill="rgb(0,0,0)" stroke="rgb(0,0,0)" stroke-width="1" opacity="0.8392156862745098" d="M 789.5 100 L 790 102.5 L 789 102.5 L 789.5 100 Z " /><path fill="rgb(0,0,0)" stroke="rgb(0,0,0)" stroke-width="1" opacity="0.8392156862745098" d="M 525.5 101 L 520.5 107 L 525.5 101 Z " /><path fill="rgb(0,0,0)" stroke="rgb(0,0,0)" stroke-width="1" opacity="0.8392156862745098" d="M 652.5 101 L 653.5 103 L 652.5 101 Z " /><path fill="rgb(0,0,0)" stroke="rgb(0,0,0)" stroke-width="1" opacity="0.8392156862745098" d="M 738.5 102 L 737.5 104 L 738.5 102 Z " /><path fill="rgb(0,0,0)" stroke="rgb(0,0,0)" stroke-width="1" opacity="0.8392156862745098" d="M 492.5 103 L 496.5 108 L 492.5 103 Z " /><path fill="rgb(0,0,0)" stroke="rgb(0,0,0)" stroke-width="1" opacity="0.8392156862745098" d="M 300.5 105 L 301 107.5 L 300 107.5 L 300.5 105 Z " /><path fill="rgb(0,0,0)" stroke="rgb(0,0,0)" stroke-width="1" opacity="0.8392156862745098" d="M 222.5 108 L 223 109.5 L 221.5 111 L 189.5 111 L 189.5 110 L 221.5 110 L 222.5 108 Z " /><path fill="rgb(0,0,0)" stroke="rgb(0,0,0)" stroke-width="1" opacity="0.8392156862745098" d="M 255.5 108 L 261 108.5 L 255.5 109 L 255.5 108 Z " /><path fill="rgb(0,0,0)" stroke="rgb(0,0,0)" stroke-width="1" opacity="0.8392156862745098" d="M 265.5 108 L 268 108.5 L 265.5 109 L 265.5 108 Z " /><path fill="rgb(0,0,0)" stroke="rgb(0,0,0)" stroke-width="1" opacity="0.8392156862745098" d="M 618.5 108 L 624 108.5 L 618 109 L 617.5 131 L 617 109.5 L 618.5 108 Z " /><path fill="rgb(0,0,0)" stroke="rgb(0,0,0)" stroke-width="1" opacity="0.8392156862745098" d="M 628.5 108 L 631 108.5 L 628.5 109 L 628.5 108 Z " /><path fill="rgb(0,0,0)" stroke="rgb(0,0,0)" stroke-width="1" opacity="0.8392156862745098" d="M 301.5 110 L 323 110.5 L 301.5 111 L 301.5 110 Z " /><path fill="rgb(0,0,0)" stroke="rgb(0,0,0)" stroke-width="1" opacity="0.8392156862745098" d="M 341.5 110 L 363 110.5 L 341.5 111 L 341.5 110 Z " /><path fill="rgb(0,0,0)" stroke="rgb(0,0,0)" stroke-width="1" opacity="0.8392156862745098" d="M 636.5 110 L 638.5 113 L 636.5 110 Z " /><path fill="rgb(0,0,0)" stroke="rgb(0,0,0)" stroke-width="1" opacity="0.8392156862745098" d="M 689.5 110 L 722 110.5 L 689 111 L 688.5 125 L 688 111.5 L 689.5 110 Z " /><path fill="rgb(0,0,0)" stroke="rgb(0,0,0)" stroke-width="1" opacity="0.8392156862745098" d="M 752.5 111 L 751.5 113 L 752.5 111 Z " /><path fill="rgb(0,0,0)" stroke="rgb(0,0,0)" stroke-width="1" opacity="0.8392156862745098" d="M 785.5 111 L 782.5 115 L 785.5 111 Z " /><path fill="rgb(0,0,0)" stroke="rgb(0,0,0)" stroke-width="1" opacity="0.8392156862745098" d="M 477.5 114 L 480.5 118 L 477.5 114 Z " /><path fill="rgb(0,0,0)" stroke="rgb(0,0,0)" stroke-width="1" opacity="0.8392156862745098" d="M 537.5 114 L 536.5 116 L 537.5 114 Z " /><path fill="rgb(0,0,0)" stroke="rgb(0,0,0)" stroke-width="1" opacity="0.8392156862745098" d="M 733.5 114 L 734 119.5 L 733 119.5 L 733.5 114 Z " /><path fill="rgb(0,0,0)" stroke="rgb(0,0,0)" stroke-width="1" opacity="0.8392156862745098" d="M 750.5 114 L 751 116.5 L 750 116.5 L 750.5 114 Z " /><path fill="rgb(0,0,0)" stroke="rgb(0,0,0)" stroke-width="1" opacity="0.8392156862745098" d="M 568.5 116 L 569.5 118 L 568.5 116 Z " /><path fill="rgb(0,0,0)" stroke="rgb(0,0,0)" stroke-width="1" opacity="0.8392156862745098" d="M 277.5 118 L 278 120.5 L 277 120.5 L 277.5 118 Z " /><path fill="rgb(0,0,0)" stroke="rgb(0,0,0)" stroke-width="1" opacity="0.8392156862745098" d="M 658.5 120 L 659 122.5 L 658 122.5 L 658.5 120 Z " /><path fill="rgb(0,0,0)" stroke="rgb(0,0,0)" stroke-width="1" opacity="0.8392156862745098" d="M 504.5 127 L 505 130.5 L 504 130.5 L 504.5 127 Z " /><path fill="rgb(0,0,0)" stroke="rgb(0,0,0)" stroke-width="1" opacity="0.8392156862745098" d="M 154.5 129 L 153.5 131 L 154.5 129 Z " /><path fill="rgb(0,0,0)" stroke="rgb(0,0,0)" stroke-width="1" opacity="0.8392156862745098" d="M 738.5 131 L 739.5 133 L 738.5 131 Z " /><path fill="rgb(0,0,0)" stroke="rgb(0,0,0)" stroke-width="1" opacity="0.8392156862745098" d="M 782.5 131 L 783.5 133 L 782.5 131 Z " /><path fill="rgb(0,0,0)" stroke="rgb(0,0,0)" stroke-width="1" opacity="0.8392156862745098" d="M 150.5 132 L 151.5 134 L 150.5 132 Z " /><path fill="rgb(0,0,0)" stroke="rgb(0,0,0)" stroke-width="1" opacity="0.8392156862745098" d="M 504.5 134 L 505 137.5 L 504 137.5 L 504.5 134 Z " /><path fill="rgb(0,0,0)" stroke="rgb(0,0,0)" stroke-width="1" opacity="0.8392156862745098" d="M 653.5 134 L 651.5 137 L 653.5 134 Z " /><path fill="rgb(0,0,0)" stroke="rgb(0,0,0)" stroke-width="1" opacity="0.8392156862745098" d="M 155.5 135 L 156.5 137 L 155.5 135 Z " /><path fill="rgb(0,0,0)" stroke="rgb(0,0,0)" stroke-width="1" opacity="0.8392156862745098" d="M 289.5 135 L 287.5 138 L 289.5 135 Z " /><path fill="rgb(0,0,0)" stroke="rgb(0,0,0)" stroke-width="1" opacity="0.8392156862745098" d="M 786.5 135 L 787.5 137 L 786.5 135 Z " /><path fill="rgb(0,0,0)" stroke="rgb(0,0,0)" stroke-width="1" opacity="0.8392156862745098" d="M 573.5 136 L 574 138.5 L 573 138.5 L 573.5 136 Z " /><path fill="rgb(0,0,0)" stroke="rgb(0,0,0)" stroke-width="1" opacity="0.8392156862745098" d="M 159.5 139 L 160.5 141 L 159.5 139 Z " /><path fill="rgb(0,0,0)" stroke="rgb(0,0,0)" stroke-width="1" opacity="0.8392156862745098" d="M 718.5 139 L 717.5 141 L 689 141 L 689 155.5 L 688 155.5 L 688 141.5 L 689.5 140 L 717.5 140 L 718.5 139 Z " /><path fill="rgb(0,0,0)" stroke="rgb(0,0,0)" stroke-width="1" opacity="0.8392156862745098" d="M 189.5 140 L 218 140.5 L 189.5 141 L 189.5 140 Z " /><path fill="rgb(0,0,0)" stroke="rgb(0,0,0)" stroke-width="1" opacity="0.8392156862745098" d="M 388.5 142 L 387.5 144 L 388.5 142 Z " /><path fill="rgb(0,0,0)" stroke="rgb(0,0,0)" stroke-width="1" opacity="0.8392156862745098" d="M 259.5 145 L 264 145.5 L 259.5 146 L 259.5 145 Z " /><path fill="rgb(0,0,0)" stroke="rgb(0,0,0)" stroke-width="1" opacity="0.8392156862745098" d="M 617.5 145 L 618 171.5 L 615.5 173 L 615.5 172 L 617 171.5 L 617.5 145 Z " /><path fill="rgb(0,0,0)" stroke="rgb(0,0,0)" stroke-width="1" opacity="0.8392156862745098" d="M 622.5 145 L 628 145.5 L 622.5 146 L 622.5 145 Z " /><path fill="rgb(0,0,0)" stroke="rgb(0,0,0)" stroke-width="1" opacity="0.8392156862745098" d="M 145.5 148 L 146 151.5 L 145 151.5 L 145.5 148 Z " /><path fill="rgb(0,0,0)" stroke="rgb(0,0,0)" stroke-width="1" opacity="0.8392156862745098" d="M 479.5 150 L 478.5 152 L 479.5 150 Z " /><path fill="rgb(0,0,0)" stroke="rgb(0,0,0)" stroke-width="1" opacity="0.8392156862745098" d="M 568.5 150 L 565.5 154 L 568.5 150 Z " /><path fill="rgb(0,0,0)" stroke="rgb(0,0,0)" stroke-width="1" opacity="0.8392156862745098" d="M 772.5 154 L 771.5 156 L 772.5 154 Z " /><path fill="rgb(0,0,0)" stroke="rgb(0,0,0)" stroke-width="1" opacity="0.8392156862745098" d="M 27.5 156 L 58.5 156 L 60 157.5 L 58.5 157 L 27.5 157 L 27.5 156 Z " /><path fill="rgb(0,0,0)" stroke="rgb(0,0,0)" stroke-width="1" opacity="0.8392156862745098" d="M 143.5 156 L 142.5 158 L 143.5 156 Z " /><path fill="rgb(0,0,0)" stroke="rgb(0,0,0)" stroke-width="1" opacity="0.8392156862745098" d="M 584.5 159 L 582.5 162 L 584.5 159 Z " /><path fill="rgb(0,0,0)" stroke="rgb(0,0,0)" stroke-width="1" opacity="0.8392156862745098" d="M 129.5 160 L 133 160.5 L 129.5 161 L 129.5 160 Z " /><path fill="rgb(0,0,0)" stroke="rgb(0,0,0)" stroke-width="1" opacity="0.8392156862745098" d="M 521.5 161 L 525.5 166 L 521.5 161 Z " /><path fill="rgb(0,0,0)" stroke="rgb(0,0,0)" stroke-width="1" opacity="0.8392156862745098" d="M 491.5 163 L 490.5 165 L 491.5 163 Z " /><path fill="rgb(0,0,0)" stroke="rgb(0,0,0)" stroke-width="1" opacity="0.8392156862745098" d="M 579.5 164 L 578.5 166 L 579.5 164 Z " /><path fill="rgb(0,0,0)" stroke="rgb(0,0,0)" stroke-width="1" opacity="0.8392156862745098" d="M 733.5 166 L 734.5 168 L 733.5 166 Z " /><path fill="rgb(0,0,0)" stroke="rgb(0,0,0)" stroke-width="1" opacity="0.8392156862745098" d="M 410.5 171 L 414 172.5 L 411.5 173 L 410.5 171 Z " /><path fill="rgb(0,0,0)" stroke="rgb(0,0,0)" stroke-width="1" opacity="0.8392156862745098" d="M 291.5 172 L 294 172.5 L 291.5 173 L 291.5 172 Z " /><path fill="rgb(0,0,0)" stroke="rgb(0,0,0)" stroke-width="1" opacity="0.8392156862745098" d="M 357.5 172 L 360 172.5 L 357.5 173 L 357.5 172 Z " /><path fill="rgb(0,0,0)" stroke="rgb(0,0,0)" stroke-width="1" opacity="0.8392156862745098" d="M 365.5 172 L 369 172.5 L 365.5 173 L 365.5 172 Z " /><path fill="rgb(0,0,0)" stroke="rgb(0,0,0)" stroke-width="1" opacity="0.8392156862745098" d="M 437.5 172 L 440 172.5 L 437.5 173 L 437.5 172 Z " /><path fill="rgb(0,0,0)" stroke="rgb(0,0,0)" stroke-width="1" opacity="0.8392156862745098" d="M 654.5 172 L 657 172.5 L 654.5 173 L 654.5 172 Z " /><path fill="rgb(0,0,0)" stroke="rgb(0,0,0)" stroke-width="1" opacity="0.8392156862745098" d="M 449.5 173 L 458 173.5 L 449.5 174 L 449.5 173 Z " /><path fill="rgb(0,0,0)" stroke="rgb(0,0,0)" stroke-width="1" opacity="0.8392156862745098" d="M 462.5 173 L 467 173.5 L 462.5 174 L 462.5 173 Z " /><path fill="rgb(0,0,0)" stroke="rgb(0,0,0)" stroke-width="1" opacity="0.8392156862745098" d="M 128.5 174 L 132 174.5 L 128.5 175 L 128.5 174 Z " /><path fill="rgb(0,0,0)" stroke="rgb(0,0,0)" stroke-width="1" opacity="0.996078431372549" d="M 448.5 9 L 449 62.5 L 448 62.5 L 448.5 9 Z " /><path fill="rgb(0,0,0)" stroke="rgb(0,0,0)" stroke-width="1" opacity="0.996078431372549" d="M 308.5 10 L 305.5 14 L 308.5 10 Z " /><path fill="rgb(0,0,0)" stroke="rgb(0,0,0)" stroke-width="1" opacity="0.996078431372549" d="M 502.5 11 L 504.5 14 L 502.5 11 Z " /><path fill="rgb(0,0,0)" stroke="rgb(0,0,0)" stroke-width="1" opacity="0.996078431372549" d="M 285.5 16 L 286.5 18 L 285.5 16 Z " /><path fill="rgb(0,0,0)" stroke="rgb(0,0,0)" stroke-width="1" opacity="0.996078431372549" d="M 312.5 17 L 311.5 19 L 312.5 17 Z " /><path fill="rgb(0,0,0)" stroke="rgb(0,0,0)" stroke-width="1" opacity="0.996078431372549" d="M 456.5 17 L 457 29.5 L 456 29.5 L 456.5 17 Z " /><path fill="rgb(0,0,0)" stroke="rgb(0,0,0)" stroke-width="1" opacity="0.996078431372549" d="M 439.5 32 L 440 38.5 L 439 38.5 L 439.5 32 Z " /><path fill="rgb(0,0,0)" stroke="rgb(0,0,0)" stroke-width="1" opacity="0.996078431372549" d="M 456.5 38 L 457 54.5 L 456 54.5 L 456.5 38 Z " /><path fill="rgb(0,0,0)" stroke="rgb(0,0,0)" stroke-width="1" opacity="0.996078431372549" d="M 79.5 94 L 83 94.5 L 79.5 95 L 79.5 94 Z " /><path fill="rgb(0,0,0)" stroke="rgb(0,0,0)" stroke-width="1" opacity="0.996078431372549" d="M 104.5 96 L 105 171.5 L 104 171.5 L 104.5 96 Z " /><path fill="rgb(0,0,0)" stroke="rgb(0,0,0)" stroke-width="1" opacity="0.996078431372549" d="M 153.5 100 L 155.5 103 L 153.5 100 Z " /><path fill="rgb(0,0,0)" stroke="rgb(0,0,0)" stroke-width="1" opacity="0.996078431372549" d="M 287.5 100 L 290.5 104 L 287.5 100 Z " /><path fill="rgb(0,0,0)" stroke="rgb(0,0,0)" stroke-width="1" opacity="0.996078431372549" d="M 300.5 101 L 301 104.5 L 300 104.5 L 300.5 101 Z " /><path fill="rgb(0,0,0)" stroke="rgb(0,0,0)" stroke-width="1" opacity="0.996078431372549" d="M 140.5 110 L 141.5 112 L 140.5 110 Z " /><path fill="rgb(0,0,0)" stroke="rgb(0,0,0)" stroke-width="1" opacity="0.996078431372549" d="M 273.5 110 L 275.5 113 L 273.5 110 Z " /><path fill="rgb(0,0,0)" stroke="rgb(0,0,0)" stroke-width="1" opacity="0.996078431372549" d="M 323.5 110 L 324 171.5 L 323 171.5 L 323.5 110 Z " /><path fill="rgb(0,0,0)" stroke="rgb(0,0,0)" stroke-width="1" opacity="0.996078431372549" d="M 539.5 112 L 538.5 114 L 539.5 112 Z " /><path fill="rgb(0,0,0)" stroke="rgb(0,0,0)" stroke-width="1" opacity="0.996078431372549" d="M 390.5 116 L 389.5 118 L 390.5 116 Z " /><path fill="rgb(0,0,0)" stroke="rgb(0,0,0)" stroke-width="1" opacity="0.996078431372549" d="M 658.5 116 L 659 119.5 L 658 119.5 L 658.5 116 Z " /><path fill="rgb(0,0,0)" stroke="rgb(0,0,0)" stroke-width="1" opacity="0.996078431372549" d="M 122.5 126 L 132 126.5 L 122.5 127 L 122.5 126 Z " /><path fill="rgb(0,0,0)" stroke="rgb(0,0,0)" stroke-width="1" opacity="0.996078431372549" d="M 485.5 131 L 486 134.5 L 485 134.5 L 485.5 131 Z " /><path fill="rgb(0,0,0)" stroke="rgb(0,0,0)" stroke-width="1" opacity="0.996078431372549" d="M 504.5 131 L 505 133.5 L 504 133.5 L 504.5 131 Z " /><path fill="rgb(0,0,0)" stroke="rgb(0,0,0)" stroke-width="1" opacity="0.996078431372549" d="M 784.5 133 L 785.5 135 L 784.5 133 Z " /><path fill="rgb(0,0,0)" stroke="rgb(0,0,0)" stroke-width="1" opacity="0.996078431372549" d="M 157.5 137 L 158.5 139 L 157.5 137 Z " /><path fill="rgb(0,0,0)" stroke="rgb(0,0,0)" stroke-width="1" opacity="0.996078431372549" d="M 285.5 138 L 284.5 140 L 285.5 138 Z " /><path fill="rgb(0,0,0)" stroke="rgb(0,0,0)" stroke-width="1" opacity="0.996078431372549" d="M 142.5 142 L 143.5 144 L 142.5 142 Z " /><path fill="rgb(0,0,0)" stroke="rgb(0,0,0)" stroke-width="1" opacity="0.996078431372549" d="M 389.5 142 L 400 142.5 L 389.5 143 L 389.5 142 Z " /><path fill="rgb(0,0,0)" stroke="rgb(0,0,0)" stroke-width="1" opacity="0.996078431372549" d="M 771.5 145 L 772.5 147 L 771.5 145 Z " /><path fill="rgb(0,0,0)" stroke="rgb(0,0,0)" stroke-width="1" opacity="0.996078431372549" d="M 536.5 151 L 537.5 153 L 536.5 151 Z " /><path fill="rgb(0,0,0)" stroke="rgb(0,0,0)" stroke-width="1" opacity="0.996078431372549" d="M 477.5 152 L 476.5 154 L 477.5 152 Z " /><path fill="rgb(0,0,0)" stroke="rgb(0,0,0)" stroke-width="1" opacity="0.996078431372549" d="M 735.5 154 L 734.5 156 L 735.5 154 Z " /><path fill="rgb(0,0,0)" stroke="rgb(0,0,0)" stroke-width="1" opacity="0.996078431372549" d="M 459.5 157 L 464 157.5 L 459.5 158 L 459.5 157 Z " /><path fill="rgb(0,0,0)" stroke="rgb(0,0,0)" stroke-width="1" opacity="0.996078431372549" d="M 495.5 159 L 492.5 163 L 495.5 159 Z " /><path fill="rgb(0,0,0)" stroke="rgb(0,0,0)" stroke-width="1" opacity="0.996078431372549" d="M 126.5 160 L 129 160.5 L 126.5 161 L 126.5 160 Z " /><path fill="rgb(0,0,0)" stroke="rgb(0,0,0)" stroke-width="1" opacity="0.996078431372549" d="M 581.5 162 L 580.5 164 L 581.5 162 Z " /><path fill="rgb(0,0,0)" stroke="rgb(0,0,0)" stroke-width="1" opacity="0.996078431372549" d="M 785.5 164 L 782.5 168 L 785.5 164 Z " /><path fill="rgb(0,0,0)" stroke="rgb(0,0,0)" stroke-width="1" opacity="0.996078431372549" d="M 360.5 172 L 365 172.5 L 360.5 173 L 360.5 172 Z " /><path fill="rgb(0,0,0)" stroke="rgb(0,0,0)" stroke-width="1" opacity="0.996078431372549" d="M 458.5 173 L 462 173.5 L 458.5 174 L 458.5 173 Z " /><path fill="rgb(0,0,0)" stroke="rgb(0,0,0)" stroke-width="1" opacity="1" d="M 281.5 8 Q 289.8 7.8 293 12.5 Q 297 16.4 296 24 L 288 24 L 288 19.5 L 285.5 16 Q 280 15 279 18.5 L 279 53.5 L 280.5 55 Q 286.8 56.3 288 52.5 L 288 47 L 296 47 Q 297.5 57.5 290.5 61 Q 287.2 64.2 279.5 63 L 273 58.5 L 271 54.5 L 271 17.5 L 276.5 10 L 281.5 8 Z " /><path fill="rgb(0,0,0)" stroke="rgb(0,0,0)" stroke-width="1" opacity="1" d="M 314.5 8 Q 323.1 8.4 327 13.5 L 329 17.5 L 329 53.5 L 323.5 61 Q 320.2 64.2 312.5 63 L 305 57.5 L 303 53.5 L 303 18.5 Q 304.4 12.4 309.5 10 L 314.5 8 Z M 315 16 L 313 17 L 311 19 L 311 53 Q 312 56 319 55 L 321 53 L 321 19 Q 320 15 315 16 Z " /><path fill="rgb(0,0,0)" stroke="rgb(0,0,0)" stroke-width="1" opacity="1" d="M 492.5 8 Q 501.6 8.4 505 14.5 L 507 18.5 L 507 52.5 Q 505.8 58.3 501.5 61 Q 498.2 64.2 490.5 63 Q 484.4 61.6 482 56.5 L 481 53.5 L 481 17.5 L 485.5 11 L 492.5 8 Z M 493 16 L 491 17 L 489 19 L 489 54 L 492 55 Q 498 56 499 53 L 499 20 L 498 17 L 493 16 Z " /><path fill="rgb(0,0,0)" stroke="rgb(0,0,0)" stroke-width="1" opacity="1" d="M 338 9 L 345.5 9 L 346 10.5 L 354 33.5 L 356.5 37 L 357 9 L 364.5 9 L 365 9.5 L 365 63 L 358.5 63 L 357 61.5 L 348 35 L 346 35.5 L 346 63 L 338 63 L 338 9 Z " /><path fill="rgb(0,0,0)" stroke="rgb(0,0,0)" stroke-width="1" opacity="1" d="M 374 9 L 381.5 9 L 382 10.5 L 391.5 35 Q 394.1 35.8 393 32.5 L 395 29.5 L 401 9 L 408.5 9 L 409 9.5 L 409 63 L 401 63 L 401 35.5 L 399 35 L 394 53 Q 390.2 54 389 51.5 L 384 35 L 382 35.5 L 382 63 L 374 63 L 374 9 Z " /><path fill="rgb(0,0,0)" stroke="rgb(0,0,0)" stroke-width="1" opacity="1" d="M 418 9 L 440.5 9 L 441 9.5 L 441 16 L 426 16 L 426 32 L 439 32 L 439 39 L 426 39 L 426 55 L 441 55 L 441 63 L 418 63 L 418 9 Z " /><path fill="rgb(0,0,0)" stroke="rgb(0,0,0)" stroke-width="1" opacity="1" d="M 449 9 L 464.5 9 L 472 14.5 L 474 20.5 L 474 26.5 L 469 34.5 Q 475.5 38.5 474 50.5 L 470 60 Q 463 64.9 449 63 L 449 9 Z M 458 16 L 456 18 L 456 30 L 458 31 Q 463 32 465 30 L 466 28 Q 467 20 465 17 Q 463 15 458 16 Z M 456 38 L 456 55 Q 462 56 465 54 Q 467 50 466 41 L 464 38 L 456 38 Z " /><path fill="rgb(0,0,0)" stroke="rgb(0,0,0)" stroke-width="1" opacity="1" d="M 514 9 L 521.5 9 L 522 9.5 L 522 55 L 537 55 L 537 63 L 514 63 L 514 9 Z " /><path fill="rgb(0,0,0)" stroke="rgb(0,0,0)" stroke-width="1" opacity="1" d="M 238 32 L 254 32 L 254 40 L 238 40 L 238 32 Z " /><path fill="rgb(0,0,0)" stroke="rgb(0,0,0)" stroke-width="1" opacity="1" d="M 547 32 L 563 32 L 563 40 L 547 40 L 547 32 Z " /><path fill="rgb(0,0,0)" stroke="rgb(0,0,0)" stroke-width="1" opacity="1" d="M 543.5 93 Q 556.2 91.3 564.5 94 Q 576.8 97.8 584 106.5 Q 589.7 113.3 592 123.5 L 593 135.5 L 591 146.5 L 587 155.5 L 576.5 167 Q 569.6 172.1 559.5 174 L 545.5 174 Q 528.8 170.7 520 159.5 L 513 145.5 L 512 126.5 Q 515.3 109.8 526.5 101 Q 533.3 95.3 543.5 93 Z M 547 109 L 540 112 Q 533 117 531 126 Q 528 144 536 152 Q 540 157 548 158 Q 559 160 565 155 Q 572 150 574 140 Q 576 125 570 118 Q 565 107 547 109 Z " /><path fill="rgb(0,0,0)" stroke="rgb(0,0,0)" stroke-width="1" opacity="1" d="M 757.5 93 L 774.5 94 L 789 100 Q 789.4 110.1 782.5 114 L 769.5 109 L 755.5 109 L 751 112.5 L 750 117.5 L 751 120 L 760.5 124 L 773.5 127 Q 782.8 130.2 788 137.5 L 791 150.5 Q 788.8 151.8 790 156.5 L 787 162.5 L 780.5 169 L 766.5 174 L 754.5 174 L 744.5 172 L 731 165 Q 732.4 157 737.5 152 L 740.5 152 Q 745.3 156.7 753.5 158 L 767.5 158 L 774 153.5 Q 775 147 771.5 145 L 744.5 136 L 738 130.5 Q 732.2 124.8 734 111.5 Q 736.4 102.4 743.5 98 L 757.5 93 Z " /><path fill="rgb(0,0,0)" stroke="rgb(0,0,0)" stroke-width="1" opacity="1" d="M 14.5 94 Q 22.5 93.3 27 95 L 27 157 L 58.5 157 L 59 158.5 L 60 159.5 L 60 169.5 L 59 172 L 10 172 L 10 95 L 14.5 94 Z " /><path fill="rgb(0,0,0)" stroke="rgb(0,0,0)" stroke-width="1" opacity="1" d="M 119.5 94 L 136.5 94 Q 137.8 96.3 142.5 95 Q 152.4 97.1 157 104.5 L 159 108.5 L 160 118.5 Q 158.5 127 152.5 131 L 150 132.5 Q 149.2 135.1 152.5 134 L 161 141.5 Q 164.3 146.2 163 155.5 Q 161.5 163 156.5 167 Q 149.9 172.4 139.5 174 L 115.5 174 L 105 172 L 105 96.5 Q 105 95.5 109.5 96 L 119.5 94 Z M 122 108 L 122 127 L 132 127 L 140 125 L 143 121 L 142 112 L 137 108 L 122 108 Z M 122 140 L 122 160 L 127 161 L 134 161 L 142 159 L 146 153 Q 147 146 144 144 L 139 140 L 122 140 Z " /><path fill="rgb(0,0,0)" stroke="rgb(0,0,0)" stroke-width="1" opacity="1" d="M 249.5 94 L 271.5 94 L 276.5 95 Q 286.8 97.8 292 105.5 Q 296.4 111.6 295 123.5 Q 292.9 132.9 286.5 138 L 281 141.5 L 299 170.5 L 297.5 172 L 281.5 173 L 265 145 L 254 145 L 254 171.5 L 251.5 172 L 250.5 173 L 240.5 173 L 237 172 L 237 96.5 L 240.5 96 L 249.5 94 Z M 254 108 L 254 131 L 270 131 L 274 129 L 278 122 Q 279 115 276 113 L 274 110 L 268 108 L 254 108 Z " /><path fill="rgb(0,0,0)" stroke="rgb(0,0,0)" stroke-width="1" opacity="1" d="M 387.5 94 L 400 95 L 428 170.5 L 426.5 172 L 415.5 173 L 410 170.5 L 406 157 L 384.5 157 L 384 153.5 L 388 143 L 399.5 143 L 400 141.5 L 390.5 116 L 369.5 172 L 354.5 172 L 354 168.5 L 382 95 L 387.5 94 Z " /><path fill="rgb(0,0,0)" stroke="rgb(0,0,0)" stroke-width="1" opacity="1" d="M 443.5 94 L 470.5 94 L 475.5 95 Q 489.4 98.6 497 108.5 Q 502.1 114.9 504 124.5 L 504 141.5 Q 500.5 158 488.5 166 L 478.5 171 L 470.5 173 L 441.5 173 L 436 172 L 436 95.5 Q 436.3 94.3 442.5 95 L 443.5 94 Z M 453 110 L 453 157 L 460 158 L 470 157 L 477 154 L 484 145 L 486 135 L 485 126 L 482 119 Q 478 112 470 110 L 453 110 Z " /><path fill="rgb(0,0,0)" stroke="rgb(0,0,0)" stroke-width="1" opacity="1" d="M 612.5 94 L 634.5 94 L 639.5 95 Q 648.9 97.1 654 103.5 Q 660.3 110.2 658 125.5 Q 654.8 134.8 647.5 140 L 645 141.5 L 662 170.5 L 660.5 172 L 644.5 173 L 627.5 145 L 617 145 L 617 171.5 L 614.5 172 L 613.5 173 L 604.5 173 L 600 172 L 600 96.5 Q 600 95.5 604.5 96 L 612.5 94 Z M 617 108 L 617 131 L 633 131 L 636 130 L 641 124 Q 642 117 640 114 Q 637 109 632 108 L 617 108 Z " /><path fill="rgb(0,0,0)" stroke="rgb(0,0,0)" stroke-width="1" opacity="1" d="M 73 95 L 89.5 95 L 90 95.5 L 90 172 Q 85.5 173.7 77.5 173 L 73 172 L 73 95 Z " /><path fill="rgb(0,0,0)" stroke="rgb(0,0,0)" stroke-width="1" opacity="1" d="M 171 95 L 221.5 95 L 222 97.5 L 223 98.5 L 223 106.5 L 222 110 L 189 110 L 189 125 L 217.5 125 L 218 126.5 L 219 127.5 L 219 138.5 L 217.5 140 L 189 140 L 189 157 L 222.5 157 L 223 158.5 L 224 159.5 L 224 168.5 L 223 172 L 171 172 L 171 95 Z " /><path fill="rgb(0,0,0)" stroke="rgb(0,0,0)" stroke-width="1" opacity="1" d="M 301 95 L 362.5 95 Q 363.5 95 363 99.5 L 364 104.5 L 363 110 L 341 110 L 341 171.5 L 337.5 172 L 336.5 173 L 327.5 173 L 324 172 L 324 110.5 L 323.5 110 L 301 110 L 301 95 Z " /><path fill="rgb(0,0,0)" stroke="rgb(0,0,0)" stroke-width="1" opacity="1" d="M 671 95 L 721.5 95 Q 722.5 95 722 99.5 Q 724.2 100.8 723 105.5 L 722 110 L 688 110 L 688 125 L 717.5 125 L 718 127.5 L 719 128.5 L 719 137.5 L 718 140 L 688 140 L 688 157 L 722.5 157 L 723 159.5 L 724 160.5 L 724 168.5 L 723 172 L 671 172 L 671 95 Z " /></svg>